<?xml version="1.0" standalone="no"?>
<!DOCTYPE svg PUBLIC "-//W3C//DTD SVG 20010904//EN"
 "http://www.w3.org/TR/2001/REC-SVG-20010904/DTD/svg10.dtd">
<svg version="1.0" xmlns="http://www.w3.org/2000/svg"
 width="1536.000000pt" height="1536.000000pt" viewBox="0 0 1536.000000 1536.000000"
 preserveAspectRatio="xMidYMid meet">
<metadata>
Created by potrace 1.16, written by Peter Selinger 2001-2019
</metadata>
<g transform="translate(0.000000,1536.000000) scale(0.100000,-0.100000)"
fill="#000000" stroke="none">
<path d="M7305 13439 c-764 -61 -1357 -218 -1992 -524 -423 -205 -814 -456
-1173 -754 -329 -275 -672 -636 -926 -976 -119 -160 -250 -352 -304 -445 -11
-19 -39 -64 -61 -100 -58 -92 -174 -317 -262 -505 -298 -642 -472 -1318 -538
-2090 -16 -181 -16 -594 0 -810 12 -170 49 -479 76 -630 84 -472 198 -866 380
-1315 208 -513 562 -1100 896 -1485 138 -159 196 -223 273 -302 49 -51 92 -96
95 -100 3 -5 65 -62 136 -129 464 -430 959 -763 1511 -1017 416 -191 914 -345
1352 -418 355 -59 533 -73 907 -73 364 -1 457 6 800 55 713 101 1448 371 2075
761 222 138 472 314 635 449 420 347 848 819 1117 1229 255 391 389 641 558
1045 53 127 78 195 142 380 73 214 137 457 192 724 37 177 31 193 -8 21 -208
-909 -559 -1654 -1095 -2325 -121 -151 -179 -215 -359 -399 -134 -136 -198
-196 -367 -346 -195 -171 -568 -436 -817 -579 -254 -145 -509 -268 -748 -358
-475 -181 -817 -268 -1285 -329 -193 -26 -238 -28 -560 -28 -384 -1 -454 6
-718 74 -517 133 -1026 460 -1426 916 -248 283 -437 567 -644 967 -91 175
-231 490 -281 635 -13 37 -44 126 -69 197 -44 124 -144 445 -154 493 -3 12 -1
22 3 22 5 0 117 -31 249 -69 132 -38 257 -72 278 -75 l37 -7 -2 197 -3 198
-135 38 c-164 47 -267 82 -425 145 l-120 48 -17 85 c-16 81 -24 125 -68 393
-29 184 -57 455 -80 797 -13 188 -13 837 0 1055 23 393 98 1005 123 1005 5 0
53 -19 106 -41 89 -39 588 -209 611 -209 16 0 14 326 -2 333 -7 2 -74 26 -148
52 -118 42 -210 79 -442 182 -39 17 -58 32 -58 43 0 21 59 267 94 390 69 247
156 506 250 753 85 221 276 616 394 812 437 728 901 1172 1517 1453 417 190
847 252 1444 208 439 -32 934 -133 1331 -271 493 -172 1066 -473 1432 -753 57
-43 126 -95 153 -116 297 -226 730 -659 940 -941 16 -22 32 -42 35 -45 8 -7
120 -158 149 -200 131 -188 218 -330 308 -500 116 -216 144 -273 232 -472 118
-265 247 -660 322 -988 19 -80 35 -138 37 -129 2 9 -13 91 -33 182 -136 635
-414 1322 -743 1842 -157 247 -286 423 -486 665 -138 166 -497 530 -666 674
-95 81 -355 282 -436 337 -12 8 -61 41 -110 75 -336 231 -744 440 -1164 597
-446 167 -835 257 -1375 318 -128 14 -746 20 -890 8z m-1240 -637 c-6 -5 -39
-31 -75 -57 -170 -127 -382 -327 -555 -525 -69 -79 -231 -293 -304 -400 -142
-212 -348 -584 -466 -845 -147 -323 -306 -777 -395 -1130 -19 -71 -35 -132
-37 -134 -6 -9 -62 23 -203 117 -120 79 -168 119 -290 241 -152 151 -214 233
-277 368 -20 40 -38 93 -40 116 -5 41 0 52 83 181 198 306 377 528 669 826
301 308 533 502 865 721 309 204 584 350 905 480 127 51 135 54 120 41z
m-2835 -2694 c147 -247 452 -512 833 -723 48 -27 87 -54 87 -59 0 -6 -11 -67
-24 -136 -22 -113 -57 -354 -85 -595 -39 -323 -59 -947 -42 -1295 20 -422 61
-819 117 -1128 14 -79 23 -146 20 -149 -7 -7 -270 134 -427 229 -531 321 -901
720 -1064 1147 -61 160 -70 216 -69 406 2 452 86 979 235 1474 34 113 160 463
189 526 5 11 35 79 66 150 62 143 103 225 114 225 4 0 26 -33 50 -72z m-315
-3824 c129 -112 318 -249 500 -363 89 -57 350 -195 452 -241 65 -29 136 -61
158 -71 22 -10 82 -36 134 -57 l94 -38 19 -69 c83 -312 176 -597 306 -935 70
-182 210 -476 340 -715 112 -205 400 -630 514 -756 13 -14 65 -73 116 -131
103 -117 302 -301 447 -415 52 -41 95 -76 95 -79 0 -2 -17 3 -37 12 -21 9 -78
32 -128 52 -129 52 -459 217 -605 302 -603 352 -1187 874 -1616 1445 -374 497
-686 1107 -874 1710 -61 194 -140 508 -140 555 0 2 33 -27 73 -66 39 -39 108
-102 152 -140z"/>
<path d="M5552 7685 l3 -3065 1347 0 c830 0 1387 4 1450 10 640 63 1112 228
1573 550 665 464 1116 1270 1200 2148 47 487 -4 984 -146 1419 -91 277 -189
483 -332 698 -237 356 -450 571 -787 794 -369 245 -740 385 -1230 465 -271 44
-353 46 -1752 46 l-1328 0 2 -3065z m2653 1880 c144 -16 235 -34 370 -72 85
-24 248 -86 270 -103 6 -4 43 -25 84 -46 101 -52 259 -171 356 -268 230 -232
389 -543 460 -904 39 -196 48 -305 42 -547 -5 -236 -25 -374 -83 -577 -140
-488 -432 -852 -849 -1057 -190 -93 -305 -131 -525 -172 -109 -21 -149 -22
-792 -26 l-678 -4 0 1895 0 1896 608 0 c473 0 636 -3 737 -15z"/>
<path d="M12247 10417 c-32 -62 -84 -147 -116 -190 -196 -262 -527 -511 -948
-713 -84 -40 -153 -75 -153 -78 0 -3 16 -32 36 -66 l35 -61 122 64 c437 228
768 510 944 805 61 102 155 334 141 347 -2 2 -29 -47 -61 -108z"/>
<path d="M13273 7543 c-90 -251 -192 -435 -348 -623 -214 -259 -412 -426 -815
-685 -185 -119 -549 -291 -870 -409 -155 -58 -334 -123 -357 -131 -7 -2 -44
-48 -84 -102 -39 -54 -97 -127 -129 -163 -79 -92 -80 -92 -18 -74 329 94 767
275 1110 456 534 283 967 650 1235 1048 132 196 250 473 287 673 8 44 3 49
-11 10z"/>
</g>
</svg>
